# xmcd CD database file
#
# Track frame offsets:
#	150
#	13921
#	42479
#	70399
#	107837
#	130086
#	172922
#	228964
#	254153
#	279850
#	298062
#
# Disc length: 4155 seconds
#
# Revision: 0
# Processed by: cddbd v1.5.2PL0 Copyright (c) Steve Scherf et al.
# Submitted via: CDex 1.51
#
DISCID=a210390b
DTITLE=Gregory Porter - Water
DYEAR=2009
DGENRE=Jazz
TTITLE0=Illusion
TTITLE1=Pretty
TTITLE2=Magic Cup
TTITLE3=Skylark
TTITLE4=Black Nile
TTITLE5=Wisdom
TTITLE6=1960 What
TTITLE7=But Beautiful
TTITLE8=Lonely One
TTITLE9=Water
TTITLE10=Feeling Good
EXTD=YEAR: 2009
EXTT0=
EXTT1=
EXTT2=
EXTT3=
EXTT4=
EXTT5=
EXTT6=
EXTT7=
EXTT8=
EXTT9=
EXTT10=
PLAYORDER=
